<?xml version="1.0" encoding="UTF-8" standalone="no"?>
<!DOCTYPE svg  PUBLIC '-//W3C//DTD SVG 1.1//EN'  'http://www.w3.org/Graphics/SVG/1.1/DTD/svg11.dtd'>
<svg style="enable-background:new 0 0 200 165.2" xmlns="http://www.w3.org/2000/svg" xml:space="preserve" height="165px" viewBox="0 0 200 165.2" width="200px" version="1.1" y="0px" x="0px" xmlns:xlink="http://www.w3.org/1999/xlink">
<style type="text/css">
<![CDATA[
	.st0{display:inline;fill:none;stroke:#547077;stroke-width:1.75;stroke-miterlimit:10;}
	.st1{display:inline;fill:#547077;}
	.st2{fill:#547077;}
	.st3{fill:none;stroke:#547077;/*stroke-width:1.75;*/stroke-width:2.5;stroke-miterlimit:10;}
	.st4{display:inline;}
	.st5{display:none;}
]]>
</style>
<polygon points="69.5 10.2 166 10.2 166 107 69.7 107" class="st3"/>
<polygon points="39.4 58.7 136 58.7 136 155 39.6 155" class="st3"/>
<line y1="54.7" x2="64.2" x1="41.3" y2="19.8" class="st3"/>
<line y1="54.7" x2="162" x1="139" y2="19.8" class="st3"/>
<line y1="151" x2="164" x1="139" y2="112" class="st3"/>
<line y1="151" x2="67.1" x1="41.7" y2="112" class="st3"/>
<path class="st2" d="m176 11.9c0 5.7-4.6 10.3-10.3 10.3s-10.3-4.6-10.3-10.3 4.6-10.3 10.3-10.3c5 0 10 4.6 10 10.3z"/>
<path class="st2" d="m176 106c0 5.7-4.6 10.3-10.3 10.3s-10.3-4.6-10.3-10.3 4.6-10.3 10.3-10.3c5-0.3 10 4.3 10 10.3z"/>
<path class="st2" d="m78.3 11.9c0 5.7-4.6 10.3-10.3 10.3s-10.3-4.6-10.3-10.3 4.6-10.3 10.3-10.3 10.3 4.6 10.3 10.3z"/>
<path class="st2" d="m78.3 106c0 5.7-4.6 10.3-10.3 10.3s-10.3-4.6-10.3-10.3 4.6-10.3 10.3-10.3c5.7-0.3 10.3 4.3 10.3 10.3z"/>
<path class="st2" d="m145 59.7c0 5.7-4.6 10.3-10.3 10.3s-10.3-4.6-10.3-10.3 4.6-10.3 10.3-10.3c5 0 10 4.7 10 10.3z"/>
<path class="st2" d="m145 154c0 5.7-4.6 10.3-10.3 10.3s-10.3-4.6-10.3-10.3 4.6-10.3 10.3-10.3c5-1 10 4 10 10z"/>
<path class="st2" d="m47.7 59.7c0 5.7-4.6 10.3-10.3 10.3s-10.3-4.6-10.3-10.3 4.6-10.3 10.3-10.3c5.6 0 10.3 4.7 10.3 10.3z"/>
<path class="st2" d="m47.7 154c0 5.7-4.6 10.3-10.3 10.3s-10.3-4.6-10.3-10.3 4.6-10.3 10.3-10.3c5.6-1 10.3 4 10.3 10z"/>
<g class="st5">
	<line y1="138" x2="11.9" x1="46.2" y2="48.6" class="st0"/>
	<line y1="140" x2="180" x1="54.5" y2="41.8" class="st0"/>
	<path class="st0" d="m178 74.2c0 35.9-29.1 65.1-65.1 65.1-35.9 0-65.1-29.1-65.1-65.1 0-35.9 29.1-65.1 65.1-65.1 36 0.3 65 29.4 65 65.4z"/>
	<path class="st0" d="m151 74.2c0 35.9-16.8 65.1-37.6 65.1s-37.6-29.1-37.6-65.1c0-35.9 16.8-65.1 37.6-65.1 21 0.3 38 29.4 38 65.4z"/>
	<line y1="46.4" x2="172" x1="54.7" y2="46.4" class="st0"/>
	<line y1="74.2" x2="178" x1="47.9" y2="74.2" class="st0"/>
	<line y1="9" x2="113" x1="113" y2="139" class="st0"/>
	<line y1="102" x2="172" x1="54.2" y2="102" class="st0"/>
	<path class="st1" d="m22.1 45.2c0 6-4.9 10.9-10.9 10.9s-10.9-4.9-10.9-10.9 4.9-10.9 10.9-10.9c6.1 0 10.9 4.9 10.9 10.9z"/>
	<path class="st1" d="m59.5 143c0 6-4.9 10.9-10.9 10.9s-10.9-4.9-10.9-10.9 4.9-10.9 10.9-10.9 10.9 5 10.9 11z"/>
	<path class="st1" d="m200 35.5c0 6-4.9 10.9-10.9 10.9s-10.9-4.9-10.9-10.9 4.9-10.9 10.9-10.9 11 4.9 11 10.9z"/>
</g>
<g class="st5">
	<path class="st0" d="m198 21v-17.3c0-1.5-1.3-2.7-2.7-2.7h-191c-1.1 0-2.2 1.3-2.2 2.7v17.3h20v20h-20v20h20v20h-20v20h20v20h-20v17.3c0 1.7 0.9 2.7 2.4 2.7h191c1.4 0 2.8-1.2 2.8-2.7v-17.3h-20v-20h20v-20h-20v-20h20v-20h-20v-20h20z"/>
	<polygon points="80.6 94.3 80.6 47.9 119 71.1" class="st1"/>
</g>
<g class="st5">
	<g class="st4">
		<polygon points="108 103 108 120 100 120 100 124 142 124 142 120 116 120 116 119 116 103" class="st2"/>
			<path class="st3" d="m27.7 49.4v-45.1c0-1.6 1.3-2.8 2.8-2.8h165c1.6 0 2.8 1.3 2.8 2.8v95.3c0 1.6-1.3 2.8-2.8 2.8h-94.2"/>
			<path class="st3" d="m55.2 150h-50.5c-1.6 0-2.8-1.3-2.8-2.8v-94.9c0-1.6 1.3-2.8 2.8-2.8h58.9c1.6 0 2.8 1.3 2.8 2.8v36.5"/>
			<path class="st3" d="m100 161c0 1.6-1.3 2.8-2.8 2.8h-38.9c-1.6 0-2.8-1.3-2.8-2.8v-69.2c0-1.6 1.3-2.8 2.8-2.8h39.3c1.6 0 2.8 1.3 2.8 2.8v69.2z"/>
		<path class="st2" d="m81 157c0 1.7-1.4 3.1-3.1 3.1s-3.1-1.4-3.1-3.1 1.4-3.1 3.1-3.1 3.1 1 3.1 3z"/>
		<path class="st2" d="m37.3 143c0 1.7-1.4 3.1-3.1 3.1s-3.1-1.4-3.1-3.1 1.4-3.1 3.1-3.1 3.1 1 3.1 3z"/>
	</g>
</g>
</svg>