<?xml version="1.0" encoding="utf-8"?>
<!-- Generator: Adobe Illustrator 16.0.0, SVG Export Plug-In . SVG Version: 6.00 Build 0)  -->
<!DOCTYPE svg PUBLIC "-//W3C//DTD SVG 1.1//EN" "http://www.w3.org/Graphics/SVG/1.1/DTD/svg11.dtd">
<svg version="1.1" id="Layer_3" xmlns="http://www.w3.org/2000/svg" xmlns:xlink="http://www.w3.org/1999/xlink" x="0px" y="0px"
	 width="770.93px" height="338.54px" viewBox="0 0 770.93 338.54" style="enable-background:new 0 0 770.93 338.54;"
	 xml:space="preserve">
<style type="text/css">
<![CDATA[
	.st0{fill:#557177;}
]]>
</style>
<path class="st0" d="M19,337.04c-9.67,0-17.5-7.83-17.5-17.5V47.88C1.5,22.42,22.38,1.5,47.9,1.5h305.86
	c9.67,0,17.5,7.92,17.5,17.58s-8.13,17.47-17.79,17.47H54.34c-11.69,0-17.97,8.59-17.97,18l0.29,264.99
	C36.67,329.2,28.67,337.04,19,337.04z M769.43,288.79V168.33c0-9.67-7.83-17.5-17.5-17.5s-17.5,7.83-17.5,17.5l0.22,113.61
	c0,10.77-7.94,18-17.56,18H453.13c-9.46,0-17.86-6.82-17.86-17.53l-0.22-227.71c0-10.58,7.64-18,17.56-18h264.28
	c9.67,0,17.5-8.04,17.5-17.71s-7.83-17.5-17.5-17.5H446.06c-25.6,0-46.39,21.5-46.39,46.33v240.88c0,25,20.48,46.45,46.42,46.45
	h276.97C749.97,335.16,769.43,312.79,769.43,288.79z M273.38,149.64c0-9.67-7.83-17.5-17.5-17.5H149.8c-9.67,0-17.5,7.83-17.5,17.5
	s7.83,17.5,17.5,17.5h106.08C265.54,167.14,273.38,159.31,273.38,149.64z"/>
</svg>
