<?xml version="1.0" encoding="utf-8"?>
<!-- Generator: Adobe Illustrator 16.0.0, SVG Export Plug-In . SVG Version: 6.00 Build 0)  -->
<!DOCTYPE svg PUBLIC "-//W3C//DTD SVG 1.1//EN" "http://www.w3.org/Graphics/SVG/1.1/DTD/svg11.dtd">
<svg version="1.1" id="Layer_4" xmlns="http://www.w3.org/2000/svg" xmlns:xlink="http://www.w3.org/1999/xlink" x="0px" y="0px"
	 width="255.99px" height="255.99px" viewBox="0 0 255.99 255.99" style="enable-background:new 0 0 255.99 255.99;"
	 xml:space="preserve">
<style type="text/css">
<![CDATA[
	.st0{fill:#5A7077;}
]]>
</style>
<rect x="59.91" y="102.4" class="st0" width="30.62" height="100.24"/>
<path class="st0" d="M74.98,88.05c-10.83,0-17.82-7.67-17.82-17.15c0-9.7,7.23-17.15,18.28-17.15c11.05,0,17.82,7.45,18.05,17.15
	C93.48,80.38,86.48,88.05,74.98,88.05z"/>
<path class="st0" d="M202.31,202.65H171.7v-54.59c0-12.69-7.14-21.22-18.21-21.22c-8.46,0-14.86,5.71-17.08,11.35
	c-0.81,2.02-1.01,4.83-1.01,7.65l-0.09,56.81l-30.46-0.16l0.09-100.12h29.71l-0.05,15.47c0,0,6.15-19.12,29.6-19.12
	c29.19,0,38.13,16.71,38.13,45.72V202.65z"/>
</svg>
