<?xml version="1.0" encoding="UTF-8" standalone="no"?>
<!DOCTYPE svg  PUBLIC '-//W3C//DTD SVG 1.1//EN'  'http://www.w3.org/Graphics/SVG/1.1/DTD/svg11.dtd'>
<svg id="Layer_2_1_" style="enable-background:new 0 0 200 165.25" xmlns="http://www.w3.org/2000/svg" xml:space="preserve" height="165px" viewBox="0 0 200 165.25" width="200px" version="1.1" y="0px" x="0px" xmlns:xlink="http://www.w3.org/1999/xlink">
<style type="text/css">
<![CDATA[
	.st0{fill:#547077;}
	.st1{fill:none;stroke:#547077;/*stroke-width:1.75;*/stroke-width:2.5;stroke-miterlimit:10;}
]]>
</style>
	<path class="st1" d="m198 32.6v-17.4c0-1.52-1.26-2.68-2.74-2.68h-191c-1.3 0-2.38 1.28-2.38 2.68v17.3h20v20.1h-19.7v20h20v20h-20v20h20v20h-20v17.3c0 1.68 0.87 2.72 2.38 2.72h191c1.41 0 2.78-1.24 2.78-2.72v-17.3h-20v-20h20v-20.4h-20v-20h20v-20h-20v-20h20z"/>
	<polygon points="80.7 106 80.7 59.4 119 82.6" class="st0"/>
</svg>