<?xml version="1.0" encoding="utf-8"?>
<!-- Generator: Adobe Illustrator 16.0.0, SVG Export Plug-In . SVG Version: 6.00 Build 0)  -->
<!DOCTYPE svg PUBLIC "-//W3C//DTD SVG 1.1//EN" "http://www.w3.org/Graphics/SVG/1.1/DTD/svg11.dtd">
<svg version="1.1" id="Layer_3" xmlns="http://www.w3.org/2000/svg" xmlns:xlink="http://www.w3.org/1999/xlink" x="0px" y="0px"
	 width="255.99px" height="255.99px" viewBox="0 0 255.99 255.99" style="enable-background:new 0 0 255.99 255.99;"
	 xml:space="preserve">
<style type="text/css">
<![CDATA[
	.st0{fill:#5A7077;}
]]>
</style>
<path class="st0" d="M200.67,82.91c-5.35,2.37-11.09,3.97-17.13,4.69c6.16-3.69,10.88-9.54,13.11-16.5
	c-5.76,3.42-12.15,5.9-18.94,7.23c-5.44-5.8-13.19-9.42-21.77-9.42c-16.47,0-29.82,13.35-29.82,29.82c0,2.33,0.26,4.61,0.77,6.8
	c-24.78-1.25-46.76-13.12-61.47-31.16c-2.57,4.4-4.04,9.53-4.04,15c0,10.35,5.27,19.48,13.26,24.82c-4.89-0.16-9.49-1.5-13.5-3.73
	c0,0.13,0,0.25,0,0.38c0,14.45,10.28,26.51,23.92,29.24c-2.5,0.68-5.14,1.04-7.86,1.04c-1.92,0-3.79-0.18-5.61-0.53
	c3.8,11.84,14.81,20.47,27.86,20.71c-10.21,8-23.07,12.77-37.04,12.77c-2.41,0-4.78-0.14-7.12-0.42c13.2,8.46,28.87,13.4,45.71,13.4
	c54.86,0,84.85-45.44,84.85-84.86c0-1.29-0.03-2.58-0.09-3.86C191.62,94.14,196.68,88.89,200.67,82.91z"/>
</svg>
