<?xml version="1.0" encoding="UTF-8" standalone="no"?>
<!DOCTYPE svg  PUBLIC '-//W3C//DTD SVG 1.1//EN'  'http://www.w3.org/Graphics/SVG/1.1/DTD/svg11.dtd'>
<svg id="VHR_copy" style="enable-background:new 0 0 1600 972" xmlns="http://www.w3.org/2000/svg" xml:space="preserve" height="972px" viewBox="0 0 1600 972" width="1.6e3px" version="1.1" y="0px" x="0px" xmlns:xlink="http://www.w3.org/1999/xlink">
<style type="text/css">
<![CDATA[
	.st0{fill:#ED1C24;}
	.st1{fill:#C4D0D9;}
]]>
</style>
<rect width="1.6e3" class="st1" height="972"/>
			<path class="st0" d="m652 634c-4.49-87.3-93.8-256-236-315h80c86.7 49.6 165 173 188 279 0.368 2.27-31.4 46.4-31.3 43.3 0-2-1-7-1-7z"/>
			<path d="m948 314c-41 41.7-70.2 95.9-70.2 173 0 74.9 30.9 128 70.2 170h-38.2c-35.4-34.9-73.6-88.8-73.6-171 0.561-82.5 38.2-137 73.6-172h38z"/>
			<path d="m689 314c35.4 35.3 73 89.6 73.6 172 0 82.1-38.2 136-73.6 171h-38.2c39.3-42.1 70.2-95.5 70.2-170 0-76.6-29.2-131-70.2-173h38z"/>
		<path class="st0" d="m738 343c0 3.58-2.91 6.49-6.49 6.49-3.59 0-6.49-2.91-6.49-6.49 0-3.59 2.91-6.49 6.49-6.49 3-1 6 2 6 6z"/>
		<path class="st0" d="m768 400c0 3.33-2.7 6.02-6.03 6.02-3.32 0-6.02-2.7-6.02-6.02 0-3.33 2.7-6.03 6.02-6.03 3 0 6 2 6 6z"/>
		<path class="st0" d="m780 457c0 3.07-2.49 5.56-5.56 5.56s-5.56-2.49-5.56-5.56 2.49-5.56 5.56-5.56c4 0 6 3 6 6z"/>
		<path class="st0" d="m780 514c0 2.76-2.24 5-5 5s-5-2.24-5-5c0-2.77 2.24-5 5-5 2 0 5 2 5 5z"/>
		<circle cy="571" cx="760" r="4.25" class="st0"/>
		<path class="st0" d="m735 628c0 2.04-1.65 3.69-3.69 3.69s-3.69-1.66-3.69-3.69c0-2.04 1.65-3.69 3.69-3.69 3 1 4 2 4 4z"/>
		<path class="st0" d="m876 343c0 2.04-1.65 3.69-3.69 3.69s-3.7-1.66-3.7-3.69c0-2.04 1.66-3.69 3.7-3.69 2 0 4 2 4 4z"/>
		<circle cy="400" cx="840" r="4.25" class="st0"/>
		<circle cy="457" cx="825" r="5" class="st0"/>
		<path class="st0" d="m830 514c0 3.07-2.48 5.56-5.55 5.56s-5.56-2.49-5.56-5.56 2.49-5.56 5.56-5.56c4 1 6 3 6 6z"/>
		<path class="st0" d="m843 571c0 3.33-2.69 6.03-6.02 6.03s-6.03-2.7-6.03-6.03c0-3.33 2.7-6.03 6.03-6.03s6 3 6 6z"/>
		<path class="st0" d="m873 628c0 3.58-2.9 6.49-6.49 6.49-3.58 0-6.5-2.91-6.5-6.49 0-3.59 2.91-6.49 6.5-6.49 4 0 7 3 7 6z"/>
		<path class="st0" d="m420 575l-4.05-12.4h1.73l1.93 6.1c0.533 1.67 0.995 3.18 1.32 4.64h0.038c0.351-1.44 0.863-3 1.42-4.62l2.1-6.12h1.71l-4.44 12.4h-2z"/>
		<path d="m438 563c0.02 0.553-0.386 0.993-1.03 0.993-0.568 0-0.973-0.44-0.973-0.993 0-0.571 0.422-1.02 1.01-1.02 1 0 1 1 1 1zm-2 12v-8.9h1.62v8.9h-2z"/>
		<path d="m450 573c0.479 0.309 1.33 0.64 2.14 0.64 1.18 0 1.73-0.59 1.73-1.33 0-0.771-0.459-1.19-1.65-1.63-1.6-0.573-2.36-1.46-2.36-2.52 0-1.44 1.16-2.62 3.08-2.62 0.903 0 1.69 0.26 2.19 0.554l-0.403 1.17c-0.349-0.218-0.997-0.512-1.82-0.512-0.957 0-1.49 0.55-1.49 1.21 0 0.738 0.531 1.07 1.69 1.51 1.54 0.588 2.34 1.36 2.34 2.69 0 1.56-1.22 2.67-3.33 2.67-0.975 0-1.88-0.241-2.5-0.606v-1z"/>
		<path d="m468 563c0.017 0.553-0.387 0.993-1.03 0.993-0.572 0-0.977-0.44-0.977-0.993 0-0.571 0.423-1.02 1.01-1.02 1 0 1 1 1 1zm-2 12v-8.9h1.62v8.9h-2z"/>
		<path d="m488 570c0 3.29-2.28 4.73-4.43 4.73-2.42 0-4.27-1.76-4.27-4.58 0-2.98 1.95-4.73 4.42-4.73 2 1 4 2 4 5zm-7 0c0 1.95 1.12 3.42 2.7 3.42 1.54 0 2.7-1.45 2.7-3.46 0-1.51-0.752-3.42-2.67-3.42s-3 2-3 3z"/>
		<path d="m499 568c0-0.925-0.017-1.68-0.072-2.41h1.44l0.093 1.47h0.037c0.438-0.844 1.47-1.68 2.94-1.68 1.23 0 3.15 0.737 3.15 3.79v5.32h-1.62v-5.13c0-1.44-0.535-2.63-2.06-2.63-1.06 0-1.89 0.756-2.17 1.66-0.075 0.2-0.111 0.479-0.111 0.753v5.35h-1.62v-6z"/>
		<path d="m524 575l-0.125-1.12h-0.057c-0.497 0.699-1.45 1.32-2.72 1.32-1.8 0-2.72-1.26-2.72-2.56 0-2.15 1.91-3.33 5.35-3.31v-0.184c0-0.737-0.199-2.06-2.02-2.06-0.829 0-1.69 0.259-2.32 0.662l-0.367-1.07c0.734-0.48 1.8-0.793 2.92-0.793 2.72 0 3.39 1.86 3.39 3.64v3.33c0 0.771 0.037 1.53 0.147 2.13h-1zm-1-5c-1.76-0.036-3.77 0.274-3.77 2.01 0 1.05 0.698 1.54 1.53 1.54 1.16 0 1.89-0.73 2.15-1.49 0.053-0.163 0.091-0.35 0.091-0.52v-2z"/>
		<path d="m537 569c0-1.05-0.016-1.95-0.075-2.78h1.42l0.055 1.75h0.073c0.406-1.2 1.38-1.95 2.46-1.95 0.185 0 0.315 0.022 0.462 0.057v1.53c-0.166-0.039-0.331-0.057-0.553-0.057-1.14 0-1.95 0.862-2.17 2.08-0.034 0.222-0.073 0.475-0.073 0.753v4.75h-1.6v-7z"/>
		<path d="m553 566l1.95 5.26c0.205 0.591 0.425 1.29 0.57 1.82h0.036c0.166-0.534 0.35-1.22 0.572-1.86l1.77-5.23h1.71l-2.43 6.35c-1.16 3.06-1.95 4.62-3.06 5.58-0.792 0.7-1.58 0.978-1.99 1.05l-0.405-1.36c0.405-0.128 0.938-0.387 1.42-0.787 0.44-0.35 0.994-0.975 1.36-1.8 0.074-0.167 0.128-0.295 0.128-0.388s-0.038-0.218-0.109-0.426l-3.29-8.2z"/>
		<path d="m419 595v5.19h6v-5.19h1.62v12.4h-1.62v-5.82h-6v5.82h-1.6v-12.4h2z"/>
		<path d="m447 607l-0.126-1.12h-0.055c-0.498 0.7-1.46 1.32-2.73 1.32-1.8 0-2.72-1.27-2.72-2.55 0-2.16 1.91-3.33 5.35-3.31v-0.188c0-0.734-0.201-2.06-2.02-2.06-0.831 0-1.69 0.258-2.32 0.661l-0.369-1.07c0.736-0.478 1.8-0.791 2.92-0.791 2.72 0 3.39 1.86 3.39 3.64v3.33c0 0.774 0.036 1.53 0.146 2.14h-1zm0-4c-1.77-0.038-3.77 0.276-3.77 2 0 1.05 0.699 1.55 1.53 1.55 1.16 0 1.89-0.735 2.15-1.49 0.053-0.165 0.093-0.353 0.093-0.516v-2z"/>
		<path d="m464 601c0-1.05-0.02-1.95-0.075-2.78h1.42l0.055 1.75h0.074c0.404-1.2 1.38-1.95 2.46-1.95 0.183 0 0.316 0.02 0.461 0.057v1.53c-0.164-0.038-0.331-0.056-0.55-0.056-1.14 0-1.95 0.864-2.17 2.08-0.039 0.223-0.075 0.481-0.075 0.756v4.75h-1.6v-7z"/>
		<path d="m490 594v10.8c0 0.789 0.019 1.69 0.074 2.3h-1.45l-0.073-1.55h-0.038c-0.498 1-1.58 1.75-3.04 1.75-2.15 0-3.81-1.82-3.81-4.52-0.017-2.96 1.82-4.78 3.99-4.78 1.36 0 2.28 0.644 2.69 1.36h0.039v-5.32h1zm-1 8c0-0.204-0.021-0.479-0.078-0.683-0.237-1.03-1.12-1.88-2.34-1.88-1.67 0-2.66 1.47-2.66 3.44 0 1.81 0.882 3.29 2.63 3.29 1.08 0 2.08-0.718 2.37-1.93 0.057-0.222 0.078-0.443 0.078-0.702z"/>
		<path d="m506 606c0.481 0.31 1.33 0.644 2.14 0.644 1.18 0 1.73-0.587 1.73-1.32 0-0.775-0.461-1.2-1.66-1.64-1.6-0.566-2.36-1.45-2.36-2.52 0-1.43 1.16-2.61 3.07-2.61 0.905 0 1.69 0.257 2.19 0.55l-0.404 1.18c-0.347-0.216-0.994-0.515-1.82-0.515-0.957 0-1.49 0.553-1.49 1.22 0 0.733 0.531 1.07 1.69 1.51 1.55 0.59 2.34 1.36 2.34 2.69 0 1.56-1.21 2.67-3.33 2.67-0.974 0-1.88-0.24-2.5-0.605v-1z"/>
		<path d="m534 603c0 3.29-2.28 4.73-4.43 4.73-2.41 0-4.27-1.77-4.27-4.58 0-2.98 1.95-4.73 4.42-4.73 2 0 4 2 4 5zm-7 0c0 1.95 1.12 3.42 2.71 3.42 1.54 0 2.7-1.45 2.7-3.46 0-1.51-0.754-3.42-2.66-3.42-2-1-3 1-3 3z"/>
		<path d="m549 601c0-0.917-0.021-1.67-0.075-2.41h1.42l0.071 1.44h0.058c0.499-0.846 1.32-1.64 2.8-1.64 1.21 0 2.14 0.736 2.52 1.79h0.036c0.274-0.5 0.626-0.884 0.992-1.16 0.536-0.403 1.12-0.625 1.97-0.625 1.18 0 2.93 0.775 2.93 3.86v5.24h-1.58v-5.04c0-1.71-0.626-2.74-1.93-2.74-0.916 0-1.64 0.68-1.91 1.48-0.074 0.217-0.133 0.515-0.133 0.805v5.5h-1.58v-5.34c0-1.42-0.624-2.45-1.86-2.45-1.01 0-1.75 0.812-2 1.62-0.093 0.237-0.131 0.52-0.131 0.794v5.37h-1.58v-6z"/>
		<path d="m578 603c0.039 2.19 1.43 3.09 3.06 3.09 1.16 0 1.86-0.2 2.47-0.459l0.275 1.16c-0.57 0.257-1.55 0.554-2.96 0.554-2.74 0-4.38-1.8-4.38-4.49s1.58-4.8 4.18-4.8c2.91 0 3.68 2.56 3.68 4.19 0 0.337-0.037 0.594-0.054 0.756h-6zm5-1c0.019-1.03-0.424-2.63-2.24-2.63-1.64 0-2.36 1.51-2.48 2.63h4z"/>
		<path class="st0" d="m417 628c0.809-0.169 1.97-0.263 3.07-0.263 1.71 0 2.81 0.315 3.59 1.01 0.624 0.557 0.975 1.4 0.975 2.36 0 1.64-1.03 2.72-2.34 3.17v0.056c0.957 0.332 1.53 1.21 1.82 2.5 0.405 1.73 0.7 2.93 0.959 3.4h-1.66c-0.205-0.35-0.483-1.41-0.83-2.96-0.368-1.71-1.03-2.36-2.48-2.41h-1.51v5.37h-1.6v-11zm2 5h1.64c1.71 0 2.8-0.94 2.8-2.36 0-1.6-1.16-2.3-2.85-2.31-0.775 0-1.32 0.075-1.58 0.147v4z"/>
		<path d="m456 635c0 3.29-2.28 4.73-4.43 4.73-2.42 0-4.27-1.77-4.27-4.59 0-2.98 1.95-4.73 4.42-4.73 3 1 4 3 4 5zm-7 0c0 1.95 1.12 3.42 2.7 3.42 1.54 0 2.7-1.46 2.7-3.46 0-1.51-0.751-3.43-2.67-3.43-2 0-3 2-3 3z"/>
		<path d="m486 640c-0.425 0.225-1.36 0.516-2.56 0.516-2.69 0-4.43-1.82-4.43-4.55 0-2.74 1.88-4.73 4.78-4.73 0.954 0 1.8 0.244 2.24 0.463l-0.371 1.25c-0.385-0.22-0.993-0.419-1.88-0.419-2.04 0-3.15 1.5-3.15 3.36 0 2.06 1.32 3.33 3.09 3.33 0.917 0 1.52-0.241 1.98-0.44v2z"/>
		<path d="m511 635h0.037c0.22-0.31 0.533-0.699 0.791-1.01l2.61-3.08h1.95l-3.44 3.66 3.92 5.24h-1.97l-3.07-4.27-0.828 0.919v3.35h-1.6v-13.1h1.6v8z"/>
		<path d="m540 636c0.038 2.19 1.44 3.09 3.06 3.09 1.16 0 1.86-0.203 2.47-0.459l0.277 1.16c-0.569 0.259-1.54 0.55-2.96 0.55-2.74 0-4.38-1.8-4.38-4.49s1.58-4.8 4.18-4.8c2.91 0 3.68 2.56 3.68 4.19 0 0.332-0.038 0.588-0.055 0.757h-6zm4-1c0.018-1.03-0.423-2.63-2.24-2.63-1.64 0-2.35 1.51-2.48 2.63h4z"/>
		<path d="m569 634c0-1.05-0.022-1.95-0.075-2.78h1.42l0.055 1.75h0.075c0.402-1.2 1.38-1.95 2.46-1.95 0.187 0 0.314 0.015 0.461 0.053v1.53c-0.166-0.037-0.33-0.053-0.555-0.053-1.14 0-1.95 0.862-2.17 2.07-0.036 0.225-0.072 0.48-0.072 0.758v4.74h-1.6v-7z"/>
		<path d="m596 638c0.479 0.312 1.32 0.645 2.13 0.645 1.18 0 1.73-0.589 1.73-1.33 0-0.771-0.462-1.19-1.66-1.64-1.6-0.568-2.35-1.45-2.35-2.52 0-1.44 1.16-2.61 3.07-2.61 0.902 0 1.69 0.259 2.19 0.553l-0.403 1.18c-0.35-0.22-0.995-0.517-1.82-0.517-0.956 0-1.49 0.553-1.49 1.22 0 0.736 0.534 1.07 1.69 1.51 1.55 0.588 2.34 1.36 2.34 2.69 0 1.56-1.22 2.67-3.33 2.67-0.976 0-1.87-0.238-2.5-0.606v-1z"/>
		<path class="st0" d="m937 349l-4.04-1.86c6.03-8.91 19.2-24.9 23.7-28.4 0 0 157 72.6 158 124 0 44.8-88.2 60-88.2 60 4.12 10.1 157 154 157 154h-75.5s-130-143-141-156c-4.64-5.19-12.2-12.8-7.45-20.5 8.83-12 100-12.3 103-40.8 0-31-123-90-123-90z"/>
</svg>
