<?xml version="1.0" encoding="UTF-8" standalone="no"?>
<!DOCTYPE svg  PUBLIC '-//W3C//DTD SVG 1.1//EN'  'http://www.w3.org/Graphics/SVG/1.1/DTD/svg11.dtd'>
<svg id="WildRose_copy" style="enable-background:new 0 521.323 741.854 450.677" xmlns="http://www.w3.org/2000/svg" xml:space="preserve" height="451px" viewBox="0 521.323 741.854 450.677" width="742px" version="1.1" y="0px" x="0px" xmlns:xlink="http://www.w3.org/1999/xlink">
<style type="text/css">
<![CDATA[
	.st0{opacity:0.9;fill:#E3D5BA;enable-background:new    ;}
	.st1{fill:#3E65E5;}
]]>
</style>
<rect y="521" x="0" height="451" class="st0" width="743"/>
			<path class="st1" d="m363 690c0.888 0.454 1.81 1.19 2.69 1.59 1.05 0.479 2.08 0.448 3.06 0.978 1.6 0.868 1.76 3.79 2.8 5.25 1.44 2.01 3.4 3.94 4.4 6.35 0.651 1.56 0.598 3.31 1.1 5.01 0.215 0.721 0.767 1.88 0.49 2.93-0.652 2.45-1.7 4.21-2.94 5.99-0.625 0.898-1.19 2.18-2.07 2.81v0.242c0.787-0.119 1.07-0.633 1.59-0.979 0.703-0.468 1.38-0.734 2.07-1.22 1.05-0.732 1.69-2.12 2.44-3.18 1.77-2.48 3.76-5.09 5.01-8.06 0.286-0.689 0.146-1.24 0.364-2.08 0.227-0.85 0.608-4.34 0.242-5.5-0.302-0.968-0.668-2.25-0.853-3.3-0.289-1.67-0.102-3.73-0.855-5.25-0.44-0.89-2.08-2.84-2.93-3.3-1.35-0.732-2.84-0.75-4.15-1.71-0.2-0.286-0.408-0.573-0.613-0.854v-0.856c0.503-0.502 0.658-0.992 1.59-1.1-0.563-1.79-2.66-1.14-4.65-1.59-0.718-0.161-1.22-0.39-2.19-0.365-0.768 0.573-3.01 0.644-3.67 0.979-1.69 0.88-2.51 2.37-3.54 3.91-0.38 0.568-1.86 1.73-1.34 2.68 3-1 4-1 4 0zm-11 5v0.244c1.32-0.165 3.57-1.18 4.89-0.855 0.725 0.179 1.65 0.514 2.32 0.735 0.701 0.228 1.45 0.203 1.96 0.609h0.124c0.442-1.94 0.346-4.98-0.368-6.48-1.06-0.201-1.99 0.425-3.18 0.124-1.06-0.268-1.97-1.02-2.93-1.34-1 2-1 5-3 6zm33 12c-0.664 1.39-1.82 2.73-2.56 4.03-1.04 1.83-1.98 3.6-3.67 4.77v0.365c0.401-0.183 1.03-0.326 1.34-0.611 0.318 0.022 0.416 0.055 0.607 0.123-0.14 1.71-1.09 3.12-1.58 4.52-1.73 4.87-3.72 7.2-7.45 10-0.469 0.35-0.801 0.925-1.22 1.34-0.204 0.206-1.23 0.685-1.34 0.858-0.052 0.083 0.124 0.241 0.124 0.241-0.108 0.316-0.139 0.212-0.365 0.365 0.869 0.627 2.58 0.387 3.78 0.731 6.6 1.92 14.4-2.47 12.6-9.28-0.428-1.66-0.18-3.15-1.1-4.28v-0.242c1.14 0.01 3.63 0.005 4.4-0.61 0.477-0.386 0.58-1.41 1.22-1.83 1.53-1 3.44-1.76 4.4-3.3 3.81-6.16-1.48-11.5-4.03-15.4-0.772-1.16-1.08-2.44-1.83-3.66-0.928-1.51-3.33-3.16-2.45-5.62h-0.239c-1.57 3.47 1.15 7.04 0.735 10.9 0 3-1 6-2 7zm-46-9c0.855 1.28-0.043 4.61-0.735 5.49 0.083 1.54 1.19 2.61 1.83 3.67 1.69 2.78 2.19 7.93 5.62 8.91 2.72 0.79 3.94-2.93 6.23-3.05v-0.244c-1.32-0.2-3.7 1-5.13-0.12-2.24-0.761-1.1-6.4-0.729-8.06 0.152-0.682 0-1.29 0.242-1.71v-0.241c0.439 0.148 0.551 0.346 0.736 0.731h0.239c-0.596-2.04 1.62-4.93 0.496-6.48 0.236-1.14 1.63-1.62 2.69-1.95h0.607c0.71-0.35 1.84-2.58 2.2-3.42-0.323-0.116-0.849-0.136-1.34-0.126-0.4 0.253-1.14-0.016-1.71 0.126-1.24 0.296-2.81 0.22-4.28 0.729-1.15 0.4-2.26 1.18-3.29 1.72-1.24 0.646-2.5 0.916-3.78 1.59-0.583 0.3-1.16 0.877-1.72 1.22 0-1 1-1 2-1zm90 70c0.011-1.16-0.317-2.58-0.977-3.66-3.24-5.31-8.56-8.05-14.4-10.8-0.635-0.293-1.42-0.821-2.08-1.09-0.469-0.204-0.795-0.135-1.22-0.367-0.464-0.26-0.861-0.732-1.47-0.86 0.172-2.85 0.362-4.77-1.35-6.59-0.188-0.212-0.227-0.581-0.481-0.734-1.39-0.851-3.98-1.22-4.52 0.485-1.06 1.56 0.889 5.78 1.71 6.35-0.67 1.76-4.5 0.762-5.62 0.127-2.72-1.55-4.23-4.71-5.25-7.94-0.366-1.16-0.221-3.9-0.734-4.77 0.008-0.405 0.038-0.726 0.125-0.977 3.41 0.083 4.1 0.766 6.23 2.32 0.891 0.646 1.96 1.29 2.56 2.2h0.251c-0.156-0.801-0.85-1.15-1.23-1.71-1.51-2.2-2.84-3.42-5.62-4.4-0.834-0.296-1.16-0.606-2.2-0.613-0.038-0.045-0.081-0.083-0.125-0.121-0.016-5.14 0.803-11 4.4-12.6 1.96-0.885 6.56 0.3 8.43 0.73 4.79 1.1 7.64-3.59 8.79-6.35 2.67-6.42-0.533-9.98-2.07-15.3-0.624-2.13-0.188-6.54 1.1-7.45v-0.365c-2.85 0.947-6.42 6.62-6.35 10.5 0.084 4.62 0.463 9.88-2.44 11.8v0.125h-0.237c-0.156-1.02 0.513-3.07-0.25-4.03-0.411-1.18-2.64-1.57-4.15-0.977-0.947 0.376-2.36 1.54-3.05 2.57-2.57 3.81-4.13 9.45-5.5 13.7 0.042 0.202 0.083 0.404 0.124 0.606-0.486 1.86-0.512 5.24-1.34 6.85-7.36 0.081-12 3.23-16.5 6.23-0.473 0.313-0.878 0.995-1.34 1.34-1.44 1.06-2.92 2.2-4.64 2.93-3.49 1.5-10.9 0.782-13.4-1.34h-0.248c0.376 1.08 1.75 1.52 2.56 2.2 3.4 2.82 9.7 3.9 14.9 2.32 1.33-0.405 3.25-0.506 4.03-1.46 0.318 0.025 0.419 0.052 0.613 0.119-0.885 1.34-2.05 2.57-2.93 3.91-1.28 1.94-2.32 4.31-3.3 6.48-0.703 1.54-0.658 3.09-1.1 4.88-0.513 2.08-0.862 5.5-0.247 7.82 0.422 1.56 0.733 3.27 1.35 4.77 0.562 1.36 1.77 3.74 2.81 4.64 0.488 0.423 1.3 0.478 1.71 0.976 3.78-0.003 4.29-4.77 2.32-7.2v1c0.718 0.262 0.718 0.918 1.23 1.35 0.449 0.369 1.45 0.588 2.07 0.731 1.55 0.348 3.67-0.767 4.77-1.34 1.76-0.938 3.71-2.05 4.64-3.79 0.387-0.728 0.142-1.54 0.367-2.44 0.274-1.1 0.202-2.58-0.242-3.66-0.582-1.39-1.96-2.78-3.42-3.66-0.745-0.45-1.65-0.585-2.32-1.1h-0.241c0.104 0.536 0.466 0.886 0.61 1.34 0.312 1-0.335 2.15-0.61 2.69-0.967 1.89-2.28 3.43-4.03 4.51-2 1.25-4.98 0.525-6.1-1.1-0.816-1.17-1.52-3.8-0.986-5.98 0.059-0.232 0.401-1.04 0.37-1.22-0.256-1.69 0.901-4.31 1.46-5.74 0.417-1.04 0.424-1.84 0.861-2.81 1.71-3.9 4.34-7.12 7.45-9.65 0.577-0.477 1.58-1.09 2.2-1.47 0.367-0.124 0.731-0.24 1.09-0.364 0.043-0.125 0.088-0.242 0.131-0.365 0.364 0.226 0.64-0.333 0.975-0.491 0.799-0.375 1.89-0.378 2.44-0.977 0.319 0.024 0.415 0.055 0.612 0.123-0.044 8.66 1.57 14.2 7.21 17.1 2.68 1.38 8.42 1.42 10-0.978 1.13 0.147 3.31 2.33 4.28 2.93 2.23 1.38 4.26 2.79 6.47 4.15 0.557 0.344 1.05 1.09 1.58 1.47 1.62 1.12 3.28 2.43 4.28 4.15 2.07 3.58 1.53 7.83-2.08 9.53 0.125 0.281 0.21 0.262 0.37 0.489 4.19 0.046 6.51-2.8 7.33-6.23-3-2-3-3-3-4zm-23-18v0.122c-1.07-0.389-1.31-1.96-1.95-2.81-0.023-1.11 0.095-1.5 0.484-2.08 0.251-0.049 0.233-0.03 0.367-0.126 0.251 0.052 0.243 0.036 0.367 0.126 2 1 3 4 2 5zm-58-44c0.571 2.38 2.19 4.28 4.03 5.38 0.607 0.359 2.02 0.649 2.81 1.22h0.369c-0.417-1.1-2.11-2.12-2.69-3.54-0.966-2.36-0.058-7.19 1.47-8.31 0.707-0.523 1.76-0.552 2.44-1.1 0.643-0.512 1.3-1.24 2.08-1.59 0.717-0.312 1.68-0.201 2.32-0.606h0.242v-0.242c-1.7-0.718-3.83-1.16-6.23-1.1-0.428 0.314-1.12 0.178-1.71 0.366-1.4 0.456-2.84 1.02-4.4 1.1 3 4 0 6 1 10zm15 4c0.623-0.219 0.754-0.774 1.22-1.1 2.02-1.4 2.77-4.3 1.83-7.33-0.204-0.667-0.108-1.47-0.484-1.96-0.359-1.32-2.72-1.65-4.64-1.59-0.596 0.562-1.64 0.632-2.44 0.984-0.598 0.259-1.16 0.77-1.71 1.09v0.248c2.03-0.4 4.24-0.12 5.25 1.71 0.202 0.36 0.637 1.26 0.245 1.83v0.241c0.299-0.093 0.427-0.171 0.613-0.365 0.283 0.04 0.303 0.061 0.484 0.124 0.562 1.3 0.262 5.11-0.365 5.86zm-2-6c-0.159-1.46-0.475-1.97-1.1-2.93-0.491-0.164-0.979-0.333-1.47-0.489-0.938-0.243-2.3 0.077-2.93 0-0.195 0.147-0.544 0.211-0.736 0.365h-0.244c1.28 1.98-0.184 1.94 0.124 3.9 0.099 0.639 0.571 1.33 0.972 1.95 0.504 0.099 1.94 0.004 2.2 0.124h0.367c-0.163-0.451-0.854-0.853-1.22-1.1-0.178-0.81-0.385-1.98 0-2.93 1.2-0.523 3.17-0.223 3.79 1.1zm-7-2c-0.252 0.328-0.677 0.456-1.1 0.61-0.345 1.61-1.04 4-0.245 5.62 0.35 0.711 1.2 1.45 1.84 2.2 0.688 0.82 1.48 1.53 2.68 1.83 0.731 0.188 1.45-0.29 1.84-0.486 1.67-0.846 3.63-4.31 3.17-6.35-0.088-0.395 0.149-0.728 0-0.977v-0.241h-0.123c-0.918 1.71-2.3 2.37-4.28 3.05-0.611 0.212-1.99 0.464-2.56 0-1.5-0.502-2.11-3.53-0.979-4.88-1-2 0-2-1-2zm4 1c-0.045 0.554-0.163 0.826 0.123 1.22 0.032 0.774 0.377 1.05 0.856 1.35 0.609 0.619 1.81-0.461 1.95-1.22 0.129-0.305-0.273-0.754-0.487-1.09h-3zm-4 14c1.51 1.44 3.08 2.75 4.64 4.16 0.226 0.2 0.372 0.68 0.613 0.855 0.777 0.548 2.71 0.798 3.54 1.1 0.727 0.262 3.02 1.26 4.03 0.977 1.22-0.343 1.44-1.84 2.08-2.81 0.383-0.585 1.6-0.697 2.2-1.1 0.835-0.56 2.77-4.79 3.05-5.98 0.241-0.623-0.708-2.08-0.978-2.69-1.11-2.48-1.84-5.11-2.8-7.57-1.34 0-2.32-0.03-3.55 0-0.311 3.08-0.494 4.53-2.69 5.74-0.679 0.376-1.46 0.42-2.07 0.854-0.756 0.52-1.15 1.57-1.96 2.07-0.987 0.616-2.34 0.523-3.66 0.489-0.493-0.011-1.34 0.364-1.71 0.489-1.18 0.083-2.36 0.16-3.54 0.24 2 3 4 5 4 5zm-8-5c1.88 0.864 4.51 0.261 6.6 0.61 0.082-0.082 0.167-0.162 0.245-0.241-1.79-0.767-4.25-2.23-5.12-3.91-0.531-1.01-0.581-2.36-1.23-3.3-0.165-0.297 0.059-0.084-0.25-0.24 0.061 1.1-0.266 2.27-0.487 3.29 0.042 0.284 0.081 0.574 0.123 0.854-1 0-1 1-1 2zm-1 15c0.178 0.029 3.31 0 3.31 0 0.328-0.059 1.18-0.257 1.71-0.123 1.38 0.339 3.88 1.44 4.76 2.32h0.248c-1.62-2.86-4.32-4.98-5.5-8.31-0.124-1.22-0.246-2.44-0.371-3.66-0.799 0.302-1.44 1.07-2.32 1.34-1.71 0.533-2.83-1.24-3.42-1.96-1.87-2.28-3.08-5.2-4.65-7.81-0.728-0.123-1.46-0.245-2.2-0.37-0.493 0.327-1.36 0.204-1.83 0.49-0.889 0.541-1.73 1.54-2.81 1.83 0.255 0.696 0.932 0.72 1.34 1.23 0.588 0.716 1.26 1.79 1.59 2.69 0.542 1.48-0.02 2.37 0.607 3.9-0.034 0.222-0.232 0.711-0.119 1.1 0.884 3.01 2.81 5.06 5.5 6.22 0 1 1 2 3 2zm5-12c-0.035 0.895-0.421 1.84 0 2.32 0.098 2.19 2.68 1.5 4.03 2.44h0.979v-0.24c-1.11-0.63-2.7-1.55-3.42-2.57 0 0-1-1-2-1zm9 16c1.55 0.963 3.04 1.93 4.52 2.93 0.588 0.401 1.39 0.44 1.83 0.979 1.4-0.455 1.99-2 3.06-2.81 1.02-0.771 1.9-1.74 2.93-2.44 1.87-1.27 4.16-2.51 5.25-4.52 0.54-0.987 1.06-2.3 1.47-3.3 0.364-0.907 0.415-2.51 0.975-3.18-0.16-0.296 0.055-0.083-0.245-0.241-0.957 0.978-2.43 1.37-3.55 2.2-0.566 0.425-1.24 1.22-1.95 1.47-0.526 0.177-1.09-0.203-1.71 0.242-1.81 0.079-2.51 2.64-4.16 3.17-1.09 0.361-2.61-0.456-3.29-0.729-1.34-0.533-2.83-0.668-4.03-1.34-1.08-0.613-1.92-2.36-3.18-2.81-0.64-0.391-3.89-0.004-4.4 0.489-0.281 0.125-0.267 0.208-0.489 0.367 0 5 3 10 6 11zm-2 12c1.1-0.257 2.37-0.198 3.42-0.616 2.29-0.911 4.36-2.05 6.35-3.3 1.61-1.01 4-3.38 6.23-3.18v-0.247c-2.22-0.444-5.36-0.562-6.84 0.86-1.52-0.124-3.94-2.01-5.13-2.81-0.267-0.183-0.587-0.083-0.854-0.247-1.5-0.912-3.02-1.66-4.64-2.56-2.91-1.62-5.41-2.8-10.3-2.69-0.452 0.296-1.09 0.242-1.59 0.484-1.43 0.706-2.68 1.92-3.3 3.42-0.489 1.21 0.093 3.1 0.369 4.03 0.823 2.83 1.3 5.5 3.66 6.72 0.326-0.879 0.294-1.77 1.22-2.08 0.858-0.521 2.3 0.188 2.93 0.371 1.3 0.377 2.44 0.611 3.54 0.976h0.732c2 1 3 2 5 2z"/>
	<path class="st1" d="m371 793c3.65 0 28.5-30.9 47.8-82.8 12-32.2 17.7-58.7 21.4-77.6l15.2 15.2c-4.79 44-10.4 110-15.5 132l-0.009 0.108c27.8-15.2 51.6-49.2 62.6-85.3l15.3 15.3c-5.21 51.6-60.8 124-65.3 124-8.33-0.991-17.9-2.88-25.7-5.49-7.84 11.9-22.7 29-28.7 30.2-6.72 1.36-27.1-26-27.1-26h-0.018s-20.4 27.3-27.1 26c-6.05-1.23-20.9-18.3-28.7-30.2-7.84 2.62-17.4 4.5-25.7 5.49-4.53 0.532-60.1-72.4-65.3-124l15.3-15.3c10.9 36 34.8 70.1 62.6 85.3l-0.004-0.108c-5.06-21.4-10.7-87.8-15.5-132l15.2-15.2c3.71 18.9 9.41 45.5 21.4 77.6 19.3 51.9 44.2 82.8 47.8 82.8h1z"/>
</svg>
