<?xml version="1.0" encoding="utf-8"?>
<svg version="1.1" id="Layer_3"
xmlns="http://www.w3.org/2000/svg"
xmlns:xlink="http://www.w3.org/1999/xlink"
width="770.93px" height="338.54px" viewBox="0 0 770.93 338.54" style="enable-background:new 0 0 770.93 338.54;"
xml:space="preserve">
<style type="text/css">
<![CDATA[
	.st0{fill:#FDFDFD;}
]]>
</style>
<g id="PathID_1" transform="matrix(-0.888557, -7.76801e-008, 0, 0.888557, 180.95, 112.6)" opacity="1">
<path class="st0" style="fill:#000000;fill-opacity:1" d="M95.05 9.1Q112.8 14.4 125.55 28.4Q118.85 31.95 110.25 34.6Q104.7 18.3 95.05 9.1M104.45 36.25Q91.95 39.5 78.4 39.7L78.2 39.7L78.2 6.4L78.4 6.4Q86.4 7.85 93.35 15.85Q100.05 23.75 104.45 36.25M110.45 71.65L78.2 71.65L78.2 45.9L78.4 45.9Q92.35 45.7 106.35 42.05Q110.25 55.8 110.45 71.65M143.8 71.65L116.65 71.65Q116.45 55.8 112.1 40.35Q120.55 37.95 129.65 32.95Q142.95 50.25 143.8 71.65M143.8 78.2Q142.95 100.05 129.4 117.15Q121 112.4 112.1 109.7Q116.45 94.3 116.65 78.2L143.8 78.2M71.95 6.4Q64 7.85 57 15.85Q50 23.75 45.7 36.25Q58.25 39.5 71.95 39.7L71.95 45.9Q57.8 45.7 44.05 42.05Q40.15 55.35 39.7 71.65L71.95 71.65L71.95 78.2L39.7 78.2Q40.15 94.85 44.05 108.05Q56.55 104.95 71.95 104.4L71.95 110.7Q57.25 111.15 45.9 113.8Q55.35 140.8 71.95 143.65L71.95 150Q41.8 148.75 20.95 127Q0 105.15 0 75.1Q0 44.7 20.95 23.05Q41.8 1.1 71.95 0L71.95 6.4M39.95 34.6Q45.9 17.75 55.1 9.1Q37.25 14.65 24.5 28.4Q31.95 32.15 39.95 34.6M20.65 32.95Q7.45 50 6.25 71.65L33.4 71.65Q33.7 55.8 38.05 40.35Q29.05 37.7 20.65 32.95M6.25 78.2Q7.25 100.05 20.65 117.15Q28.85 112.6 38.05 109.7Q33.7 94.3 33.4 78.2L6.25 78.2M78.2 104.4L78.2 78.2L110.45 78.2Q110.25 94.85 106.1 108.05Q93.6 104.95 78.4 104.4L78.2 104.4M78.2 110.7L78.4 110.7Q93.15 111.15 104.45 113.8Q99.8 126.35 93.15 134.25Q86.4 142.2 78.4 143.65L78.2 143.65L78.2 110.7M24.75 121.8Q37.7 135.8 55.1 140.8Q45.9 131.9 39.95 115.5Q31.3 118.15 24.75 121.8M110.25 115.5Q118.1 117.9 125.55 121.8Q112.8 135.8 95.05 140.8Q104.15 131.9 110.25 115.5" />
</g>
<g id="PathID_2" transform="matrix(-0.888557, -7.76801e-008, 0, 0.888557, 180.95, 112.6)" opacity="1">
</g>
<g id="PathID_3" transform="matrix(1.40625, 0, 0, 1.40625, 197.5, 179)" opacity="1">
<path class="st0" style="fill:#000000;fill-opacity:1" d="M19.65 -11L23.65 -12.75L27.6 -14.4Q29 -16.5 30.5 -18.2Q33.85 -21.9 36.7 -22.15Q37.45 -22.2 38 -21.9Q38.5 -21.55 38.45 -20.8Q38.2 -18.15 32.2 -15.7L30.8 -15.15L28.1 -9.8Q26.4 -6.75 24.8 -4.9Q19.6 0.85 11.5 1.3Q6.1 1.65 3.15 -0.4Q0 2.45 -0.9 4.35Q-1.15 4.85 -1.3 4.8Q-1.4 4.75 -1.4 4.55L-1.3 4.2Q-0.45 1.85 2.5 -0.9Q0.4 -2.75 0.6 -5.7Q0.75 -7.55 1.95 -9.05Q3.9 -11.5 7.15 -12.75Q10.3 -13.9 13.55 -13.7Q14.6 -13.65 15.9 -13.3Q18.55 -12.65 19.6 -11.05L19.65 -11M31.2 -15.85L33.65 -17Q37.55 -18.65 37.9 -20.75Q38 -21.35 37.65 -21.55Q37.25 -21.8 36.7 -21.7Q34.25 -21.35 31.2 -15.9L31.2 -15.85M12.75 -3.55Q10.5 -3.55 8.85 -4.65L7.3 -3.55Q5 -2 4.1 -1.15Q6.25 0.9 10.45 0.9L12 0.85Q19.55 0.25 25.05 -9.85Q25.85 -11.35 27.3 -13.6L27.3 -13.65L19.95 -10.5Q20.25 -9.65 20.25 -8.9Q20.2 -6.45 17.65 -4.9Q15.4 -3.55 12.8 -3.55L12.75 -3.55M12.7 -4.1Q14.95 -4.1 16.85 -5.3Q19.05 -6.75 19.1 -8.85Q19.1 -9.4 18.95 -10.05Q11.25 -6.25 9.25 -4.9Q10.8 -4.1 12.65 -4.1L12.7 -4.1M18.75 -10.7Q17.6 -12.95 13.35 -13.25Q9.55 -13.5 6.35 -11.65Q2.7 -9.55 2.4 -5.95Q2.2 -3.4 3.55 -1.85Q6.45 -4.2 8.1 -5.2Q7.15 -6.05 7 -7.15Q6.95 -7.3 7 -7.5Q7.05 -7.7 7.15 -7.65L7.3 -7.25Q7.55 -6.25 8.55 -5.45Q11.5 -7.35 15.4 -9.1L18.8 -10.65L18.75 -10.7" />
</g>
<g id="PathID_4" transform="matrix(1.40625, 0, 0, 1.40625, 197.5, 179)" opacity="1">
</g>
<g id="PathID_5" transform="matrix(1.40625, 0, 0, 1.40625, 238, 179)" opacity="1">
<path  class="st0" style="fill:#000000;fill-opacity:1" d="M2.35 -2.4L4.45 -4.3Q9.75 -9.05 12.7 -8.75Q14.55 -8.55 14.55 -7.25Q14.55 -6.1 12.7 -5.7L10.65 -5.4Q9.15 -5.15 9.35 -2.8Q9.5 -1.05 10.25 -0.9Q10.5 -0.85 10.85 -1Q12 -1.35 13.55 -2.65Q14.15 -3.1 15.95 -4.75Q16.55 -5.1 16.65 -5.05Q16.8 -4.9 16.25 -4.4Q14 -2.35 13.1 -1.7Q10.5 0.3 8.7 0.3Q6.8 0.3 6.95 -2.1Q7.05 -4 8.1 -4.9Q8.45 -5.2 10.45 -5.85Q12 -6.35 12.1 -7.25Q12.15 -7.7 11.8 -7.9Q11.45 -8.15 11 -8.05Q9.25 -7.65 6.25 -5.15Q5.3 -4.35 3.5 -2.6Q0.45 0.3 -0.7 0.3Q-1.3 0.3 -1.5 0.15Q-1.65 0 -1.4 -0.5Q-0.35 -2.85 2.1 -6L2.1 -6.05L1.05 -5.1Q-0.15 -4 -0.3 -4.2Q-0.4 -4.3 0.05 -4.75L3.2 -7.55L6.15 -11.3Q9.2 -15.25 15.5 -21.75Q19.2 -25.6 21.35 -27.05Q24.25 -29.1 25.7 -29.1Q27.6 -29.1 27.3 -27.25Q27 -25.45 22.7 -21.45Q20.7 -19.6 16.8 -16.4L11.5 -12.3Q8.2 -9.75 6.35 -8.1L5.5 -6.95L4.25 -5.25L2.25 -2.45L2.35 -2.4M7.15 -9.35L10.35 -12.05L14.65 -15.55Q18.75 -18.9 22.95 -23.15Q25.9 -26.1 26 -27.6Q26.1 -28.55 25.15 -28.55Q23.9 -28.55 21.8 -26.5Q17.9 -22.7 15 -19.2L13.35 -17.2Q10.1 -13.2 7.15 -9.4L7.15 -9.35" />
</g>
<g id="PathID_6" transform="matrix(1.40625, 0, 0, 1.40625, 238, 179)" opacity="1">
</g>
<g id="PathID_7" transform="matrix(1.40625, 0, 0, 1.40625, 260.4, 179)" opacity="1">
<path class="st0" style="fill:#000000;fill-opacity:1" d="M4.1 -7.35L3.25 -6.8Q1.75 -5.75 -0.15 -3.95Q-0.6 -3.6 -0.7 -3.7L-0.75 -3.85Q-0.75 -4.1 0.15 -4.85L3.1 -7.35Q4.75 -8.7 6.45 -8.75Q7.3 -8.8 7.4 -8.6Q7.45 -8.5 5.75 -6.3Q3.2 -3 2.45 -1.9Q2.25 -1.4 2.25 -1.15Q2.25 -0.75 2.8 -0.9L3.55 -1.15Q5.9 -2.6 7.45 -3.75Q10.2 -5.85 12.9 -8.15Q13.55 -8.75 14.4 -8.75Q15.05 -8.75 15.3 -8.65Q15.55 -8.5 15.15 -7.95L9.9 -1L5.4 5.05L2.55 8.95Q-0.4 13.1 -1.45 14.75L-3.65 18.15Q-3.95 18.6 -3.95 19.05L-3.9 19.2Q-3.45 19.55 -1.6 16.8L-0.55 15.2Q0.25 14 0.6 13.6L2.95 10.4L6.35 5.7Q11.05 -0.3 16.1 -4.75Q16.6 -5.2 16.75 -5.05Q16.9 -4.9 15 -3.1Q12.25 -0.45 10.05 2.1Q5.6 7.3 0.65 14.4Q-2.35 18.85 -3.65 20.05Q-4.45 20.8 -5.15 20.7Q-6.1 20.6 -6.1 19.6Q-6.1 18.85 -5.45 17.7Q-3.25 13.75 0.5 8.55L10.75 -5.6L10.6 -5.6Q8.2 -3.6 6.65 -2.55Q2.6 0.35 1 0.35Q-0.5 0.35 -0.35 -1.1Q-0.2 -1.9 0.45 -3.05Q1.75 -5.1 4.1 -7.3L4.1 -7.35" />
</g>
<g id="PathID_8" transform="matrix(1.40625, 0, 0, 1.40625, 260.4, 179)" opacity="1">
</g>
<g id="PathID_9" transform="matrix(1.40625, 0, 0, 1.40625, 293.95, 179)" opacity="1">
<path class="st0" style="fill:#000000;fill-opacity:1" d="M36.65 -26.25Q32.2 -26.25 30.15 -23.65L29.6 -22.55L29.15 -21.55Q28.95 -21.55 29.05 -22.2L29.3 -23Q30.05 -24.9 32.4 -26Q34.4 -26.9 36.7 -26.9Q39.3 -26.9 41.15 -26Q43.45 -24.8 43.45 -22.45L43.35 -21.4Q42.5 -17.05 34 -17.25L33.35 -17.3Q31 -17.3 27.4 -12.2Q24.75 -8.4 23.05 -6.85Q18.05 -2.25 11.25 -0.85L11.25 -0.8L12.55 -0.7Q16.65 -0.3 19.4 -0.35Q25.85 -0.4 29.4 -2.85L31.45 -4.45Q32 -4.9 32.1 -4.8L32.15 -4.65Q32.15 -4.45 31.65 -4.1L29.55 -2.35Q25.3 0.6 18.7 0.6Q13.35 0.6 8.7 -0.1Q5.6 0.45 3.25 0.45L1.7 0.45L0.05 0.4Q-1.8 0.2 -1.7 -0.4Q-1.45 -1.7 2.5 -1.7L4.35 -1.65L10.15 -1Q15.2 -2 19.05 -6.15L24.1 -11.95Q27.85 -16.15 32 -17.35L32 -17.4Q28.9 -17.7 25.05 -18.45Q19.65 -19.55 16.8 -19.7Q13.7 -19.85 11.25 -18.95Q8.15 -17.75 7.85 -15.05Q7.65 -13.25 9.3 -12.05Q10.8 -11.05 12.7 -11Q14.7 -10.95 16.15 -11.6Q17.95 -12.45 18.1 -14.2Q18.25 -15.05 17.7 -15.7L17.5 -15.9Q17.45 -15.95 17.5 -16Q17.6 -16.1 17.8 -16.05L18.1 -15.85Q19.1 -15.35 19.1 -14.1Q19.1 -12.25 16.7 -11.25Q14.95 -10.55 12.7 -10.55Q11.45 -10.55 10.45 -10.9Q6.95 -12.1 7.25 -15.2Q7.45 -16.6 8.3 -17.7Q10.9 -21.1 17.4 -20.95Q19.7 -20.9 21.6 -20.55Q32 -18.95 34.55 -18.8Q42.75 -18.35 42.75 -22.65Q42.75 -24.45 40.55 -25.5Q38.8 -26.25 36.7 -26.25L36.65 -26.25" />
</g>
<g id="PathID_10" transform="matrix(1.40625, 0, 0, 1.40625, 293.95, 179)" opacity="1">
</g>
<g id="PathID_11" transform="matrix(1.40625, 0, 0, 1.40625, 338.55, 179)" opacity="1">
<path class="st0" style="fill:#000000;fill-opacity:1" d="M8.35 -8.75Q8.95 -8.75 9.45 -8.35Q9.9 -7.95 9.85 -7.4Q9.7 -5.75 6.6 -4.3Q5.1 -3.55 2.1 -2.65L1.8 -1.5Q1.7 -0.4 3 -0.35Q3.75 -0.3 4.95 -0.75Q7.95 -1.85 10.9 -4.8Q11.35 -5.25 11.6 -5.1Q11.75 -4.95 11.15 -4.4Q9.7 -2.9 7.95 -1.75Q4.7 0.45 1.95 0.45Q-0.95 0.45 -0.85 -1.65Q-0.65 -3.1 0.35 -4.45L0.3 -4.45L-0.05 -4.05Q-0.6 -3.5 -0.75 -3.7Q-0.85 -3.85 -0.7 -4.05Q0.6 -5.55 3.45 -7.1Q6.45 -8.75 8.3 -8.75L8.35 -8.75M2.4 -3.15Q4.75 -3.95 5.95 -4.75Q7.95 -6.15 8.05 -7.4Q8.2 -8.1 7.45 -8.1Q6.2 -7.85 4.55 -6.1Q3.3 -4.7 2.4 -3.2L2.4 -3.15" />
</g>
<g id="PathID_12" transform="matrix(1.40625, 0, 0, 1.40625, 338.55, 179)" opacity="1">
</g>
<g id="PathID_13" transform="matrix(1.40625, 0, 0, 1.40625, 353.8, 179)" opacity="1">
<path class="st0" style="fill:#000000;fill-opacity:1" d="M2.05 0.45Q-0.85 0.45 -0.65 -1.7Q-0.5 -3.2 0.8 -4.8L0.75 -4.8L0.4 -4.45Q-0.5 -3.5 -0.7 -3.7Q-0.8 -3.85 -0.65 -4.05Q0.65 -5.55 3.6 -7.2Q6.85 -8.95 8.6 -8.75Q10.25 -8.55 9.95 -6.8Q9.85 -6.2 9.3 -5.6Q8.8 -5.05 8.2 -5.05Q7.55 -5.05 7.5 -5.5Q7.4 -5.9 7.8 -6.6L8.35 -7.7Q8.45 -8.15 7.95 -8.25Q7.1 -8.4 4.8 -6.1Q2.15 -3.4 1.95 -1.5Q1.75 -0.35 3.1 -0.35Q5.15 -0.35 7.75 -2.2Q9.8 -3.6 10.65 -4.45L11.05 -4.7Q11.25 -4.85 11.35 -4.75Q11.45 -4.65 11.3 -4.45Q10.6 -3.45 8 -1.75Q4.8 0.45 2.1 0.45L2.05 0.45" />
</g>
<g id="PathID_14" transform="matrix(1.40625, 0, 0, 1.40625, 353.8, 179)" opacity="1">
</g>
<g id="PathID_15" transform="matrix(1.40625, 0, 0, 1.40625, 369.1, 179)" opacity="1">
<path class="st0" style="fill:#000000;fill-opacity:1" d="M2.45 -2.4L4.45 -4.1L6.85 -6Q10.45 -8.75 12.45 -8.75Q14.25 -8.75 14.05 -7.35Q13.95 -6.7 13.2 -5.7L12 -4.25Q10 -1.8 10 -1.1Q10 -0.65 10.65 -0.85Q11.55 -1 13.55 -2.55Q14.7 -3.35 16.25 -4.75Q16.8 -5.15 16.9 -5.05Q17.05 -4.95 16.5 -4.4Q15.05 -2.95 13.35 -1.75Q10.55 0.3 8.8 0.3Q7.05 0.3 7.25 -1Q7.4 -1.95 8.1 -2.85Q9.55 -4.9 11.55 -7.1L11.75 -7.5Q11.85 -7.7 11.6 -7.8Q11.3 -7.95 10.3 -7.55Q9.3 -7.1 8.55 -6.55Q5.7 -4.45 3.45 -2.55L2.1 -1.4Q0.1 0.3 -0.75 0.3Q-1.3 0.3 -1.5 0.2Q-1.7 0.05 -1.4 -0.5Q0.2 -3.6 2.2 -6.1L2.2 -6.15L1.15 -5.15Q-0.15 -4 -0.3 -4.2Q-0.4 -4.3 0.05 -4.75Q1.55 -6.15 3.3 -7.55L6.2 -11.3Q9.5 -15.5 15.5 -21.75Q19.2 -25.6 21.35 -27.05Q24.25 -29.1 25.7 -29.1Q27.6 -29.1 27.3 -27.25Q27.05 -25.65 23.85 -22.55Q21.2 -19.95 16.8 -16.4L6.35 -8.1Q5.5 -7.05 4.45 -5.55L2.3 -2.45L2.45 -2.4M7.15 -9.35L10.35 -12.05L14.65 -15.55Q18.75 -18.9 22.95 -23.15Q25.9 -26.1 26 -27.6Q26.1 -28.55 25.15 -28.55Q23.9 -28.55 21.8 -26.5Q18.25 -23.05 15 -19.2L14.2 -18.2L10.75 -14L9.05 -11.85L7.15 -9.4L7.15 -9.35" />
</g>
<g id="PathID_16" transform="matrix(1.40625, 0, 0, 1.40625, 369.1, 179)" opacity="1">
</g>
<g id="PathID_17" transform="matrix(1.40625, 0, 0, 1.40625, 391.95, 179)" opacity="1">
<path class="st0" style="fill:#000000;fill-opacity:1" d="M10.55 0.3Q8.85 0.3 9.05 -1Q9.2 -1.95 9.9 -2.85Q11.35 -4.9 13.35 -7.1L13.55 -7.5Q13.65 -7.7 13.4 -7.8Q13.1 -7.95 12.1 -7.55Q11.1 -7.1 10.35 -6.55Q7.5 -4.45 5.25 -2.55L3.9 -1.4Q1.9 0.3 1.05 0.3Q0.45 0.3 0.25 0.2Q0.05 0.05 0.35 -0.5Q2.05 -3.55 4.7 -6.7Q5.3 -7.3 5 -7.55Q4.9 -7.7 4.7 -7.65Q3.7 -7.25 3.3 -6.95Q1.95 -6.05 -0.05 -4.05Q-0.6 -3.55 -0.75 -3.7L-0.8 -3.85Q-0.8 -4.05 -0.4 -4.35Q1.4 -6.15 2.5 -7Q4.75 -8.75 6.1 -8.75Q7.4 -8.75 7.4 -7.55Q7.4 -7.1 7.05 -6.55Q5.15 -3.75 4.1 -2.45L4.25 -2.4L6.25 -4.1L8.65 -5.95Q12.25 -8.75 14.25 -8.75Q16.05 -8.75 15.85 -7.35Q15.75 -6.7 15 -5.7L13.8 -4.25Q11.8 -1.8 11.8 -1.1Q11.8 -0.7 12.45 -0.85Q14 -1.2 16.9 -3.8Q18.15 -4.9 18.5 -5.05Q18.65 -5.15 18.75 -5.05Q18.9 -4.9 18.3 -4.4Q15.85 -2.25 15.15 -1.75Q12.3 0.3 10.6 0.3L10.55 0.3" />
</g>
<g id="PathID_18" transform="matrix(1.40625, 0, 0, 1.40625, 391.95, 179)" opacity="1">
</g>
<g id="PathID_19" transform="matrix(1.40625, 0, 0, 1.40625, 417.25, 179)" opacity="1">
<path class="st0" style="fill:#000000;fill-opacity:1" d="M0.95 -5L0 -4.1Q-0.55 -3.55 -0.7 -3.7Q-0.8 -3.85 -0.65 -4.05Q0.55 -5.45 3.85 -7.3Q6.05 -8.5 8.15 -8.75L8.65 -8.8Q8.85 -8.75 8.95 -8.55Q8.95 -8.45 8.7 -8.35Q8.45 -8.3 8.4 -8.2Q6.85 -7.55 4.7 -5.4Q1.9 -2.65 1.7 -0.9Q1.6 -0.05 2.45 -0.05Q4.45 -0.05 7.2 -3.15L7.45 -4.15Q8.05 -6 9.75 -6.65Q9.9 -7.05 9.9 -7.9L9.75 -8.5Q9.7 -8.6 9.85 -8.65Q9.95 -8.75 10.2 -8.65Q11.35 -7.95 11.2 -6.55Q11 -4.85 8.25 -2.4Q8.45 -2.3 8.75 -2.35Q9.4 -2.4 9.95 -2.65L12.05 -4.25Q13.3 -5.15 13.4 -5.05Q13.55 -4.95 13 -4.4Q11 -2.4 9.25 -1.95Q8.95 -1.85 8.6 -1.9Q8.15 -1.85 7.85 -2.05L6.7 -1.2Q4.1 0.45 2.05 0.45Q-0.7 0.45 -0.45 -1.8Q-0.3 -3.5 0.95 -4.95L0.95 -5" />
</g>
<g id="PathID_20" transform="matrix(1.40625, 0, 0, 1.40625, 417.25, 179)" opacity="1">
</g>
<g id="PathID_21" transform="matrix(1.40625, 0, 0, 1.40625, 435.1, 179)" opacity="1">
<path class="st0" style="fill:#000000;fill-opacity:1" d="M2.3 -6.25L1.2 -5.2Q-0.15 -4 -0.3 -4.2Q-0.4 -4.3 0.05 -4.75L3.45 -7.7Q6.3 -11.45 9.5 -15.25Q16 -22.85 21.15 -27.05Q23.65 -29.1 25.4 -29.1Q27.25 -29.1 26.95 -27.25Q26.5 -24.85 20.25 -19.6L6.35 -8.05Q4.95 -6.3 4.4 -5.4Q2.8 -3.05 2.4 -1.7Q2.15 -0.85 2.85 -0.85Q4.65 -0.85 8.55 -4.75L9.2 -5.05Q9.35 -4.95 8.8 -4.4Q7.65 -3.2 5.75 -1.75Q3.1 0.3 1.1 0.3Q-0.55 0.3 -0.45 -1.05Q-0.4 -2.2 0.65 -3.75L2.35 -6.25L2.3 -6.25M7.15 -9.35L12.55 -14L16 -17Q19.75 -20.15 22.7 -23.15Q25.6 -26.1 25.7 -27.6Q25.8 -28.55 24.85 -28.55Q24.15 -28.55 23.35 -27.95Q20.65 -25.9 15 -19.2L14.2 -18.2L10.75 -14L9.05 -11.85L7.15 -9.4L7.15 -9.35" />
</g>
<g id="PathID_22" transform="matrix(1.40625, 0, 0, 1.40625, 435.1, 179)" opacity="1">
</g>
<g id="PathID_23" transform="matrix(1.40625, 0, 0, 1.40625, 447.1, 179)" opacity="1">
<path class="st0" style="fill:#000000;fill-opacity:1" d="M0.95 -5L0 -4.1Q-0.55 -3.55 -0.7 -3.7Q-0.8 -3.85 -0.65 -4.05Q0.55 -5.45 3.85 -7.3Q6.05 -8.5 8.15 -8.75L8.65 -8.8Q8.85 -8.75 8.95 -8.55Q8.95 -8.45 8.7 -8.35Q8.45 -8.3 8.4 -8.2Q6.85 -7.55 4.7 -5.4Q1.9 -2.65 1.7 -0.9Q1.6 -0.05 2.45 -0.05Q4.45 -0.05 7.2 -3.15L7.45 -4.15Q8.05 -6 9.75 -6.65Q9.9 -7.05 9.9 -7.9L9.75 -8.5Q9.7 -8.6 9.85 -8.65Q9.95 -8.75 10.2 -8.65Q11.35 -7.95 11.2 -6.55Q11 -4.85 8.25 -2.4Q8.45 -2.3 8.75 -2.35Q9.4 -2.4 9.95 -2.65L12.05 -4.25Q13.3 -5.15 13.4 -5.05Q13.55 -4.95 13 -4.4Q11 -2.4 9.25 -1.95Q8.95 -1.85 8.6 -1.9Q8.15 -1.85 7.85 -2.05L6.7 -1.2Q4.1 0.45 2.05 0.45Q-0.7 0.45 -0.45 -1.8Q-0.3 -3.5 0.95 -4.95L0.95 -5" />
</g>
<g id="PathID_24" transform="matrix(1.40625, 0, 0, 1.40625, 447.1, 179)" opacity="1">
</g>
<g id="PathID_25" transform="matrix(1.40625, 0, 0, 1.40625, 464.95, 179)" opacity="1">
<path class="st0" style="fill:#000000;fill-opacity:1" d="M6.45 1.15L8.85 -0.35Q12.35 -2.65 14.6 -4.75L15.3 -5.1Q15.5 -4.9 14.85 -4.4Q13.25 -2.9 11.65 -1.7Q9.8 -0.25 6 1.95Q4.9 3.6 4.2 4.5L2.2 7.1Q0.05 9.9 -1 11.1Q-6.45 17.1 -11.5 19.7Q-13.6 20.75 -15.05 20.75L-16.05 20.65Q-17.7 20.3 -17.45 18.6Q-16.85 14.35 -4.05 6.7L-1.5 5.15L3.25 2.3L5.75 -1.25L6.45 -2.35L6.45 -2.4Q3.45 0.15 1.1 0.3Q0 0.35 -0.55 -0.15Q-1.15 -0.7 -1 -1.75Q-0.75 -3.15 0.4 -4.4L0.4 -4.45L-0.2 -3.9Q-0.55 -3.55 -0.7 -3.7Q-0.8 -3.85 -0.65 -4.05Q0.75 -5.7 3.75 -7.25Q7 -8.95 9 -8.75Q10.4 -8.45 10.15 -7L10.2 -7Q11.75 -8.75 12.65 -8.75Q13.6 -8.75 13.6 -8.4L12.05 -6.35L10.65 -4.55L6.45 1.1L6.45 1.15M1.9 -0.45Q3.5 -0.45 6.15 -2.85Q9.6 -5.95 9.7 -7.3Q9.75 -8.25 8.8 -8.25Q7.35 -8.25 4.05 -5Q1.1 -2.1 1.2 -0.95Q1.25 -0.45 1.85 -0.45L1.9 -0.45M2.8 3.1L-4.25 7.5Q-15.5 14.55 -15.7 18.6Q-15.75 19.75 -14.95 20Q-12.75 20.7 -7.75 16Q-3.55 12.05 2.8 3.15L2.8 3.1" />
</g>
<g id="PathID_26" transform="matrix(1.40625, 0, 0, 1.40625, 464.95, 179)" opacity="1">
</g>
<g id="PathID_27" transform="matrix(1.40625, 0, 0, 1.40625, 485.45, 179)" opacity="1">
<path class="st0" style="fill:#000000;fill-opacity:1" d="M4.1 -7.35L3.25 -6.8Q1.75 -5.75 -0.15 -3.95Q-0.6 -3.6 -0.7 -3.7L-0.75 -3.85Q-0.75 -4.1 0.15 -4.85L3.1 -7.35Q4.75 -8.7 6.45 -8.75Q7.3 -8.8 7.4 -8.6Q7.45 -8.5 5.75 -6.3Q3.2 -3 2.45 -1.9Q2.25 -1.4 2.25 -1.15Q2.25 -0.75 2.8 -0.9L3.55 -1.15Q5.9 -2.6 7.45 -3.75Q10.2 -5.85 12.9 -8.15Q13.55 -8.75 14.4 -8.75Q15.05 -8.75 15.3 -8.65Q15.55 -8.5 15.15 -7.95L9.9 -1L5.4 5.05L2.55 8.95Q-0.4 13.1 -1.45 14.75L-3.65 18.15Q-3.95 18.6 -3.95 19.05L-3.9 19.2Q-3.45 19.55 -1.6 16.8L-0.55 15.2Q0.25 14 0.6 13.6L2.95 10.4L6.35 5.7Q11.05 -0.3 16.1 -4.75Q16.6 -5.2 16.75 -5.05Q16.9 -4.9 15 -3.1Q12.25 -0.45 10.05 2.1Q5.6 7.3 0.65 14.4Q-2.35 18.85 -3.65 20.05Q-4.45 20.8 -5.15 20.7Q-6.1 20.6 -6.1 19.6Q-6.1 18.85 -5.45 17.7Q-3.25 13.75 0.5 8.55L10.75 -5.6L10.6 -5.6Q8.2 -3.6 6.65 -2.55Q2.6 0.35 1 0.35Q-0.5 0.35 -0.35 -1.1Q-0.2 -1.9 0.45 -3.05Q1.75 -5.1 4.1 -7.3L4.1 -7.35" />
</g>
<g id="PathID_28" transform="matrix(1.40625, 0, 0, 1.40625, 485.45, 179)" opacity="1">
</g>
</svg>
