<?xml version="1.0" encoding="utf-8"?>
<!-- Generator: Adobe Illustrator 16.0.0, SVG Export Plug-In . SVG Version: 6.00 Build 0)  -->
<!DOCTYPE svg PUBLIC "-//W3C//DTD SVG 1.1//EN" "http://www.w3.org/Graphics/SVG/1.1/DTD/svg11.dtd">
<svg version="1.1" id="name_5a7077" xmlns="http://www.w3.org/2000/svg" xmlns:xlink="http://www.w3.org/1999/xlink" x="0px"
	 y="0px" width="99px" height="99px" viewBox="0 0 99 99" style="enable-background:new 0 0 99 99;" xml:space="preserve">
<path style="fill:none;stroke:#5A7077;stroke-width:3;stroke-miterlimit:10;" d="M51.323,85.619l31,0.432
	c3.637-0.332,4.106-5.16,3.438-8.77s-8.375-13.533-13.938-13.533c-12.129,0.627-14.2-7.19-13.185-12.278
	c0.588-1.599,1.796-2.578,2.893-4.553s1.196-4.028,2.041-4.685c1.585-1.232,3.126-5.398,1.168-7.44
	c-2.683-2.797,4.45-21.477-15.241-21.477l-0.255,0.001c-19.373,0.161-12.314,18.69-14.985,21.475
	c-1.958,2.042-0.417,6.208,1.168,7.44c0.845,0.657,0.944,2.709,2.041,4.685s2.305,2.955,2.893,4.553
	c1.016,5.088-1.056,12.905-13.185,12.278c-5.562,0-13.269,9.924-13.938,13.533s-0.199,8.438,3.438,8.77l31-0.432H51.323z"/>
</svg>
