<?xml version="1.0" encoding="utf-8"?>
<!-- Generator: Adobe Illustrator 16.0.0, SVG Export Plug-In . SVG Version: 6.00 Build 0)  -->
<!DOCTYPE svg PUBLIC "-//W3C//DTD SVG 1.1//EN" "http://www.w3.org/Graphics/SVG/1.1/DTD/svg11.dtd">
<svg version="1.1" id="Layer_2" xmlns="http://www.w3.org/2000/svg" xmlns:xlink="http://www.w3.org/1999/xlink" x="0px" y="0px"
	 width="463.092px" height="463.09px" viewBox="0 0 463.092 463.09" enable-background="new 0 0 463.092 463.09"
	 xml:space="preserve">
<g>
	<g>
		<path fill="#FDFDFD" d="M0.086,236.823c0.487,3.939,3.415,11.035,17.72,14.337l157.797,35.165l35.174,157.859
			c3.295,14.241,10.378,17.175,14.331,17.656c3.94,0.474,11.535-0.664,18.143-13.672L457.888,26.015
			c6.355-12.505,3.73-19.085,0.423-22.396c-1.833-1.833-4.673-3.456-8.961-3.453c-3.459-0.003-7.86,1.053-13.451,3.889
			L13.778,218.676C0.75,225.285-0.394,232.885,0.086,236.823L0.086,236.823z M232.835,423.852c-1.645,3.238-2.992,4.593-3.668,5.128
			c-0.519-0.676-1.493-2.295-2.315-5.817l-32.24-142.154L420.399,55.226L232.835,423.852z M38.997,229.601L406.872,41.212
			L180.807,267.289L39.731,235.843c-3.693-0.844-5.388-1.863-6.09-2.422C34.191,232.718,35.595,231.331,38.997,229.601
			L38.997,229.601z"/>
	</g>
</g>
<g>
	<g>
		<path fill="#786F64" d="M582.14,245.942c0.483,0.377,1.578,0.832,3.5-0.369l21.07-13.391l21.077,13.396
			c1.915,1.195,3.01,0.742,3.493,0.363c0.482-0.379,1.188-1.332,0.488-3.475l-22.659-69.532c-0.672-2.06-1.677-2.491-2.399-2.492
			c-0.4,0-0.888,0.133-1.355,0.602c-0.378,0.377-0.743,0.973-1.044,1.893l-22.657,69.527
			C580.952,244.61,581.657,245.565,582.14,245.942L582.14,245.942z M627.977,240.95c0.174,0.533,0.174,0.828,0.159,0.961
			c-0.131-0.018-0.414-0.088-0.888-0.383l-19.043-12.002v-49.308L627.977,240.95z M585.6,240.905l19.599-60.74l0.001,49.371
			l-18.838,11.971c-0.495,0.311-0.792,0.385-0.93,0.4C585.415,241.77,585.417,241.465,585.6,240.905L585.6,240.905z"/>
	</g>
</g>
<rect x="591.82" y="213.32" transform="matrix(0.3127 -0.9498 0.9498 0.3127 203.0847 710.2924)" fill="#6DB122" width="1.084" height="2.984"/>
<rect x="628.279" y="237.236" transform="matrix(-0.3119 -0.9501 0.9501 -0.3119 598.1289 910.639)" fill="#6DB122" width="1.083" height="2.984"/>
<rect x="599.758" y="232.925" transform="matrix(0.8382 -0.5453 0.5453 0.8382 -30.7229 365.2663)" fill="#6DB122" width="1.083" height="2.984"/>
<rect x="589.377" y="239.642" transform="matrix(0.8378 -0.5459 0.5459 0.8378 -35.9746 361.1648)" fill="#6DB122" width="1.084" height="2.984"/>
<rect x="618.534" y="236.67" transform="matrix(-0.8386 -0.5447 0.5447 -0.8386 1008.5415 775.09)" fill="#6DB122" width="1.083" height="2.984"/>
<rect x="624.456" y="240.417" transform="matrix(-0.8378 -0.5459 0.5459 -0.8378 1016.5693 785.7978)" fill="#6DB122" width="1.084" height="2.984"/>
</svg>
